<?xml version="1.0" encoding="utf-8"?>
<!-- Generator: Adobe Illustrator 27.3.1, SVG Export Plug-In . SVG Version: 6.00 Build 0)  -->
<svg version="1.1" id="Layer_1" xmlns="http://www.w3.org/2000/svg" xmlns:xlink="http://www.w3.org/1999/xlink" x="0px" y="0px"
	 viewBox="0 0 396 113.1" style="enable-background:new 0 0 396 113.1;" xml:space="preserve">
<style type="text/css">
	.st0{fill:#17A150;}
	.st1{fill:#330066;}
	.st2{fill:#17A150;fill-opacity:0;}
	.st3{fill:#FFFFFF;}
	.st4{fill:none;stroke:#330066;stroke-miterlimit:10;}
	.st5{fill:#242830;}
</style>
<g id="SvgjsG5761" transform="matrix(1.041406458067563,0,0,1.041406458067563,-10.414063587513038,6.086060796169983)">
	<g id="XMLID_00000079454922164623721090000009261443469648634522_">
		<g>
			<path class="st0" d="M86.8,38.3l-0.2-0.1c-2-1-4.1-1.9-6.2-2.8c-0.5-0.2-1.1-0.4-1.6-0.6l-0.8-0.3l-0.8-0.4
				c-1.1-0.5-2.2-1-3.2-1.5c-9.2-4.1-18.7-7.7-28.3-10.8c-6.1-2-12.5-3.8-19-5.5c3.9-2.7,8.2-4.7,12.8-5.9c2.8,1.1,5.5,2.3,8.2,3.6
				c9.3,4.3,18.3,9.2,27,14.5c1.1,0.6,2.1,1.3,3.2,1.9l0.8,0.5c0.3,0.2,0.5,0.4,0.8,0.5l1.5,1.1c1.8,1.3,3.6,2.6,5.4,3.9
				C86.4,37,86.6,37.6,86.8,38.3z"/>
			<path class="st1" d="M85.6,43.4c-2.1-0.2-4.2-0.4-6.4-0.5l-1.7-0.1c-0.3,0-0.6,0-0.8,0l-0.9-0.1l-3.4-0.5
				c-4.6-0.7-9.3-1.4-14.2-2.3l-7.4-1.2L46.9,38l-2-0.3l-1-0.1l-1-0.1c-1.3-0.2-2.7-0.3-4-0.5l-4.1-0.5c-2.8-0.4-5.6-0.7-8.5-1
				c-4.4-0.5-9-0.9-13.7-1.3c1.4-3.6,3.3-6.9,5.6-10c3.2,0.5,6.4,1.1,9.5,1.7c2.8,0.5,5.5,1.1,8.2,1.6l4,0.9c1.3,0.3,2.7,0.6,4,0.9
				l1,0.3l1,0.3l1.9,0.5l3.8,1.1c2.5,0.7,5,1.4,7.4,2.1c4.8,1.4,9.5,2.8,13.9,4.2l3.3,1l0.8,0.2l0.8,0.3l1.6,0.6
				c2.1,0.8,4.2,1.5,6.2,2.1c0.6,0.2,1.2,0.4,1.8,0.5l0.2,1.1L85.6,43.4z"/>
			<path class="st1" d="M77.7,55.8c2.2-0.6,4.3-1.3,6.3-2.1c1.3-0.5,2.5-1,3.8-1.6l-0.1,1c-1.2,0.8-2.5,1.6-3.8,2.4
				c-2.1,1.3-4.2,2.6-6.3,3.9l-1.6,1l-0.4,0.2l-0.1,0.1l-0.1,0.1l-0.2,0.1L75,60.9c-0.4,0.2-0.7,0.3-1.1,0.4
				c-0.7,0.2-1.3,0.4-1.9,0.6c-0.6,0.1-1.2,0.3-1.7,0.4c-1.1,0.2-2.3,0.4-3.4,0.5c-1.1,0.1-2.2,0.2-3.4,0.3c-2.3,0.1-4.6,0.1-7,0.2
				c-2.4,0.1-4.8,0.1-7.3,0.1c-1.2,0-2.5,0.1-3.7,0.1c-0.6,0-1.3,0.1-1.9,0.1h-1l-0.9,0.1c-2.6,0.2-5.1,0.5-7.6,1
				c-2.6,0.5-5.2,1.2-7.9,1.9c-2.6,0.8-5.3,1.7-8,2.6l-1.7,0.6c-2-3.1-3.6-6.4-4.8-9.9l3-0.8c2.9-0.8,6-1.5,9-2.1
				c3-0.6,6-1.1,9.1-1.4c3-0.3,6-0.5,9-0.4H43h1.1c0.7,0,1.4,0.1,2.1,0.1c1.4,0.1,2.8,0.2,4.1,0.3c2.7,0.2,5.3,0.5,7.8,0.7
				c2.5,0.2,4.9,0.4,7.2,0.5c1.1,0.1,2.3,0.1,3.4,0.1c1.1,0,2.2,0,3.2-0.1c0.5,0,1-0.1,1.5-0.2c0.5-0.1,1-0.1,1.4-0.2l0.6-0.1h0.1
				h0.1h0.1l0.4-0.1L77.7,55.8z"/>
			<path class="st0" d="M77.3,64.5c2.1-1.2,4.2-2.6,6.2-4.1c1.1-0.8,2.3-1.7,3.4-2.7c-0.1,0.6-0.3,1-0.4,1.5c-1,1.1-2.1,2.1-3,3.1
				c-2,2-4,4-6.1,5.9l-1.5,1.4L75.6,70l-0.1,0.1l-0.1,0.1l-0.1,0.1l-0.3,0.1c-0.1,0.1-0.2,0.2-0.3,0.2c-0.3,0.2-0.7,0.5-1.1,0.7
				c-0.4,0.2-0.7,0.4-1,0.5l-0.9,0.4c-0.6,0.3-1.1,0.5-1.7,0.7c-1,0.4-2.1,0.7-3.2,1c-1.1,0.3-2.1,0.5-3.2,0.7
				c-2.2,0.4-4.3,0.6-6.6,0.9c-2.2,0.2-4.5,0.5-6.8,0.8c-1.2,0.1-2.3,0.3-3.5,0.5c-0.6,0.1-1.2,0.2-1.8,0.3
				c-0.6,0.1-1.2,0.3-1.7,0.4c-2.4,0.6-4.7,1.4-7,2.3c-1.9,0.8-3.9,1.8-5.9,2.8c-3.4-1.8-6.6-4.2-9.3-7c1.3-0.6,2.7-1.2,4-1.7
				c2.8-1.1,5.6-2.1,8.4-2.9c2.9-0.9,5.8-1.5,8.8-1.9c0.7-0.1,1.5-0.2,2.2-0.3l2.1-0.2c1.4-0.1,2.8-0.2,4.1-0.2
				c2.7-0.1,5.3-0.1,7.7-0.1s4.8-0.1,7-0.3c1.1-0.1,2.2-0.2,3.2-0.4c1-0.2,2.1-0.4,3.1-0.6c0.5-0.1,1-0.3,1.4-0.4
				c0.4-0.1,0.9-0.3,1.3-0.5c0.2-0.1,0.4-0.2,0.5-0.2l0.1,0h0.1h0.1l0.2-0.1C76.2,65.1,76.8,64.8,77.3,64.5z"/>
			<path class="st1" d="M84.7,49.2c-2.1,0.6-4.2,1.2-6.5,1.8l-1.7,0.5l-0.4,0.1l-0.2,0.1h-0.1h-0.1h-0.1c-0.4,0.1-0.7,0.1-1,0.1
				C73.3,51.9,72.2,52,71,52c-2.3,0-4.6-0.1-7-0.2c-2.3-0.2-4.7-0.4-7.1-0.6c-2.4-0.2-4.9-0.5-7.4-0.7l-3.8-0.3l-2-0.1h-1h-1
				c-2.6-0.1-5.2-0.1-8,0.1c-2.7,0.1-5.5,0.4-8.3,0.7c-2.9,0.3-5.8,0.7-8.7,1.2c-2.1,0.3-4.3,0.7-6.5,1c-0.2-1.6-0.3-3.2-0.3-4.9
				c0-2,0.2-4,0.5-6c1.7-0.2,3.4-0.4,5.1-0.5c3.1-0.3,6.2-0.5,9.2-0.6s6-0.1,9,0c3,0.1,5.9,0.3,8.7,0.7l1.1,0.2l1,0.2l2.1,0.3
				c1.4,0.2,2.7,0.5,4,0.7c2.6,0.5,5.2,1.1,7.7,1.6c2.5,0.5,4.9,1.1,7.2,1.5c2.3,0.4,4.6,0.8,6.8,1.1c1.1,0.1,2.1,0.3,3.1,0.3
				c0.2,0,0.4,0,0.6,0h0.2h0.2h0.4l1.6,0.1c2.2,0.1,4.3,0,6.4-0.2c1.1,0,2.1-0.1,3.2-0.2c0,0.2,0,0.5,0,0.7v0.2L84.7,49.2z"/>
			<path class="st0" d="M78.6,25.8l-3-2.5c-5.7-4.7-11.7-9.1-17.9-13.2c11.1,2.5,20.5,9.7,25.8,19.7c-0.6-0.5-1.2-1-1.8-1.5L80.1,27
				l-0.8-0.6L78.6,25.8z"/>
			<path class="st0" d="M72.5,76.5c0.5-0.2,0.9-0.5,1.3-0.7l0.6-0.4L75,75l0.5-0.4l0.1-0.1l0.1-0.1l0.1-0.1l0.2-0.2
				c0.5-0.4,1-0.9,1.5-1.3c1.9-1.8,3.8-3.7,5.7-5.8c-8.8,15.7-27.2,23.3-44.5,18.5c2-0.8,4.1-1.4,6.1-1.9l1-0.3l1-0.2
				c0.6-0.2,1.3-0.3,1.9-0.5c1.3-0.3,2.6-0.6,3.8-0.9c2.5-0.6,5-1,7.3-1.5c2.3-0.5,4.6-1,6.7-1.7c1.1-0.3,2.1-0.6,3.1-1
				C70.6,77.4,71.6,77,72.5,76.5z"/>
		</g>
		<g>
		</g>
	</g>
</g>
<g id="SvgjsG5762" transform="matrix(1,0,0,1,405,0)">
	<rect x="-10" y="0" class="st2" width="1" height="1"/>
	<rect x="-304.5" y="0" class="st0" width="2.9" height="113.1"/>
</g>
<g id="SvgjsG5763" transform="matrix(1.9948135942333765,0,0,1.9948135942333765,117.48912714197203,18.068421465553048)">
	<g id="XMLID_00000137103725412874833320000017169272526449321099_">
		<g>
			<path class="st0" d="M130.7,10.2l-4.5,11.4c-0.4,0.9-0.8,1.5-1.2,1.9c-0.4,0.4-1,0.5-1.8,0.5c-0.6,0-1-0.1-1.4-0.2l0.2-1.3
				c0.2,0.1,0.6,0.2,1.1,0.2c0.7,0,1.3-0.4,1.6-1.3l0.7-1.9l-3.8-9.2h1.8l2.8,7.2h0l2.7-7.2H130.7z"/>
			<path class="st0" d="M120,13.6v5.7h-1.5v-5.5c0-0.7-0.2-1.3-0.5-1.7c-0.3-0.4-0.9-0.7-1.6-0.7c-0.9,0-1.6,0.3-2.1,0.9
				s-0.7,1.5-0.7,2.6v4.5H112v-7.1c0-0.1,0-0.7-0.1-2h1.4c0,0.9,0,1.4,0,1.5h0c0.3-0.5,0.6-0.9,1.2-1.3c0.6-0.3,1.2-0.5,1.8-0.5
				c1.1,0,2,0.3,2.6,1C119.7,11.6,120,12.5,120,13.6z"/>
			<path class="st0" d="M109.4,19.3h-1.5c-0.1-0.1-0.1-0.6-0.1-1.4h0c-0.7,1-1.7,1.6-3,1.6c-1,0-1.8-0.3-2.4-0.7
				c-0.6-0.5-0.9-1.2-0.9-2c0-1.1,0.5-1.9,1.4-2.4c0.9-0.5,2.3-0.8,4.3-0.8h0.7v-0.3c0-1.3-0.8-2-2.3-2c-1.1,0-2,0.3-2.7,1l-1-1
				c0.9-0.9,2.1-1.4,3.6-1.4c1.3,0,2.3,0.3,2.9,0.9c0.6,0.6,0.9,1.6,0.9,2.8v4.1C109.3,18.2,109.3,18.7,109.4,19.3z M107.7,15.2
				v-0.4h-1.7c-0.9,0-1.6,0.1-2.2,0.4s-0.8,0.7-0.8,1.3c0,1,0.7,1.6,2,1.6c0.8,0,1.4-0.3,1.9-0.8C107.5,17,107.7,16.2,107.7,15.2z"
				/>
			<path class="st0" d="M99.6,14.7c0,1.4-0.4,2.5-1.3,3.4c-0.9,0.9-2,1.4-3.2,1.4c-0.8,0-1.5-0.2-2.1-0.5c-0.6-0.3-1.1-0.8-1.4-1.3
				h0v6.1h-1.5V10.2h1.5v1.3h0c0.9-1,2-1.6,3.3-1.6c1.4,0,2.6,0.5,3.5,1.4C99.1,12.2,99.5,13.3,99.6,14.7z M97.9,14.7
				c0-1-0.3-1.8-0.9-2.4c-0.6-0.6-1.4-1-2.4-1c-0.9,0-1.7,0.3-2.3,0.9c-0.6,0.6-0.9,1.4-0.9,2.4c0,1,0.3,1.8,0.9,2.4
				c0.6,0.6,1.4,0.9,2.3,1c1,0,1.7-0.3,2.3-0.9C97.6,16.5,97.9,15.7,97.9,14.7z"/>
			<path class="st0" d="M87.1,13.6v5.6h-1.5v-5.5c0-1.6-0.7-2.4-2.2-2.4c-0.7,0-1.3,0.3-1.7,0.8C81.2,12.6,81,13.2,81,14v5.3h-1.5
				V14c0-0.9-0.1-1.6-0.4-2c-0.3-0.4-0.7-0.7-1.4-0.7c-0.9,0-1.6,0.3-2.1,0.9c-0.5,0.6-0.7,1.5-0.7,2.6v4.5h-1.5v-7.1
				c0-0.5,0-1.1-0.1-2h1.4c0,0.9,0,1.4,0,1.5h0c0.2-0.5,0.6-0.9,1.2-1.3c0.5-0.3,1.2-0.5,1.9-0.5c1.4,0,2.3,0.6,2.9,1.7
				c0.4-0.6,0.8-1,1.2-1.3c0.5-0.3,1-0.4,1.7-0.4c1.2,0,2.1,0.3,2.6,0.9C86.8,11.5,87.1,12.4,87.1,13.6z"/>
			<path class="st0" d="M71,14.7c0,1.4-0.5,2.5-1.4,3.4c-0.9,0.9-2.1,1.3-3.5,1.4c-1.4,0-2.6-0.5-3.5-1.4c-0.9-0.9-1.4-2.1-1.4-3.4
				c0-1.4,0.5-2.6,1.4-3.4c0.9-0.9,2.1-1.3,3.5-1.4c1.4,0,2.6,0.4,3.5,1.3C70.5,12.1,71,13.3,71,14.7z M69.4,14.7
				c0-1-0.3-1.8-0.9-2.4c-0.6-0.6-1.4-1-2.4-1c-0.9,0-1.7,0.3-2.3,0.9c-0.6,0.6-0.9,1.4-0.9,2.4c0,1,0.3,1.8,0.9,2.4
				c0.6,0.6,1.4,0.9,2.3,1c0.9,0,1.7-0.3,2.3-0.9C69.1,16.5,69.4,15.7,69.4,14.7z"/>
			<path class="st0" d="M58.6,16.2l1.2,1c-1.2,1.6-3,2.4-5.2,2.4c-2,0-3.7-0.7-5-2.1c-1.3-1.4-2-3.1-2-5.2c0-2.1,0.7-3.8,2-5.1
				s3-2.1,5-2.1c1.1,0,2,0.2,2.9,0.6c0.8,0.4,1.5,0.9,2,1.6l-1.4,1c-0.4-0.6-0.9-1-1.5-1.3c-0.6-0.3-1.2-0.4-1.9-0.4
				c-1.5,0-2.7,0.6-3.7,1.7s-1.5,2.5-1.5,4.1c0,1.6,0.5,3,1.5,4.1c1,1.1,2.3,1.6,3.8,1.6C56.2,18.1,57.5,17.5,58.6,16.2z"/>
			<path class="st3" d="M40.8,17.8l0.1,1.4c-0.5,0.2-1.1,0.3-1.8,0.3c-0.9,0-1.6-0.2-2-0.7c-0.4-0.5-0.6-1.2-0.6-2.3v-5.1h-2v-1.3h2
				V7.6h1.5v2.6h2.7v1.3h-2.7v4.9c0,0.7,0.1,1.2,0.4,1.4c0.2,0.2,0.6,0.4,1,0.4C39.9,18.1,40.4,18,40.8,17.8z"/>
			<polygon class="st3" points="30.5,14.4 34.3,19.3 32.3,19.3 29.4,15.3 26.5,19.3 24.6,19.3 28.4,14.4 25.1,10.2 27.1,10.2 
				29.5,13.4 31.8,10.2 33.6,10.2 			"/>
			<path class="st3" d="M23.7,14.8v0.4h-7.4c0.1,0.8,0.4,1.5,1,2.1c0.6,0.5,1.2,0.8,2.1,0.8c1.2,0,2.2-0.5,2.9-1.4l1.2,0.9
				c-0.5,0.6-1,1.1-1.7,1.4c-0.7,0.3-1.4,0.5-2.3,0.5c-1.4,0-2.5-0.5-3.4-1.4c-0.8-0.9-1.3-2.1-1.3-3.4c0-1.4,0.4-2.5,1.3-3.4
				c0.9-0.9,2-1.4,3.4-1.4c1.4,0,2.4,0.4,3.2,1.3C23.3,12.1,23.6,13.3,23.7,14.8z M16.3,13.9H22c0-0.8-0.3-1.4-0.8-1.9
				s-1.1-0.7-2-0.7c-0.8,0-1.4,0.2-2,0.7C16.7,12.4,16.4,13.1,16.3,13.9z"/>
			<polygon class="st3" points="12,5.5 12,19.3 9.9,19.3 1.9,7.8 1.9,7.8 1.9,19.3 0.3,19.3 0.3,5.5 2.3,5.5 10.3,16.9 10.4,16.9 
				10.4,5.5 			"/>
		</g>
		<g>
			<polygon class="st4" points="2.3,5.5 10.3,16.9 10.4,16.9 10.4,5.5 12,5.5 12,19.3 9.9,19.3 1.9,7.8 1.9,7.8 1.9,19.3 0.3,19.3 
				0.3,5.5 			"/>
			<path class="st4" d="M19.3,9.9c1.4,0,2.4,0.4,3.2,1.3c0.8,0.9,1.1,2.1,1.2,3.6v0.4h-7.4c0.1,0.8,0.4,1.5,1,2.1
				c0.6,0.5,1.2,0.8,2.1,0.8c1.2,0,2.2-0.5,2.9-1.4l1.2,0.9c-0.5,0.6-1,1.1-1.7,1.4c-0.7,0.3-1.4,0.5-2.3,0.5
				c-1.4,0-2.5-0.5-3.4-1.4c-0.8-0.9-1.3-2.1-1.3-3.4c0-1.4,0.4-2.5,1.3-3.4C16.8,10.4,17.9,9.9,19.3,9.9z"/>
			<path class="st4" d="M22,13.9c0-0.8-0.3-1.4-0.8-1.9s-1.1-0.7-2-0.7c-0.8,0-1.4,0.2-2,0.7c-0.5,0.4-0.9,1.1-1,1.9H22z"/>
			<polygon class="st4" points="27.1,10.2 29.5,13.4 31.8,10.2 33.6,10.2 30.5,14.4 34.3,19.3 32.3,19.3 29.4,15.3 26.5,19.3 
				24.6,19.3 28.4,14.4 25.1,10.2 			"/>
			<path class="st4" d="M38.1,7.6v2.6h2.7v1.3h-2.7v4.9c0,0.7,0.1,1.2,0.4,1.4c0.2,0.2,0.6,0.4,1,0.4c0.5,0,1-0.1,1.3-0.3l0.1,1.4
				c-0.5,0.2-1.1,0.3-1.8,0.3c-0.9,0-1.6-0.2-2-0.7c-0.4-0.5-0.6-1.2-0.6-2.3v-5.1h-2v-1.3h2V7.6H38.1z"/>
		</g>
	</g>
</g>
<g id="SvgjsG5764" transform="matrix(0.577964801046227,0,0,0.577964801046227,120.93064429001728,74.83275315483797)">
	<g id="XMLID_00000142888027920092492920000015157343542345154701_">
		<g>
			<polygon class="st5" points="139.3,14.8 139.3,16.3 130.3,16.3 130.3,2.5 139,2.5 139,4 131.9,4 131.9,8.4 138.5,8.4 138.5,9.9 
				131.9,9.9 131.9,14.8 			"/>
			<polygon class="st5" points="124.2,2.5 124.2,16.3 122.2,16.3 114.2,4.8 114.1,4.8 114.1,16.3 112.5,16.3 112.5,2.5 114.6,2.5 
				122.5,14 122.6,14 122.6,2.5 			"/>
			<path class="st5" d="M105.1,4.2c1.3,1.4,2,3.1,2.1,5.2c0,2.1-0.7,3.9-2.1,5.2c-1.4,1.3-3.1,2-5.1,2c-2.1,0-3.8-0.7-5.1-2.1
				c-1.3-1.4-2-3.1-2.1-5.2c0-2.1,0.7-3.8,2-5.2c1.3-1.4,3.1-2.1,5.2-2.1C102.1,2.2,103.8,2.8,105.1,4.2z M105.4,9.4
				c0-1.6-0.5-2.9-1.5-4c-1-1.1-2.3-1.7-4-1.7c-1.6,0-2.9,0.6-3.9,1.7c-1,1.1-1.5,2.5-1.5,4.1c0,1.7,0.5,3,1.6,4.1
				c1,1.1,2.3,1.6,3.9,1.7c1.6,0,2.9-0.6,3.9-1.6C104.9,12.4,105.4,11.1,105.4,9.4z"/>
			<polygon class="st5" points="80.3,14.8 80.3,16.3 71.3,16.3 71.3,2.5 79.9,2.5 79.9,4 72.9,4 72.9,8.4 79.5,8.4 79.5,9.9 
				72.9,9.9 72.9,14.8 			"/>
			<path class="st5" d="M62.3,10l3.9,6.3h-2l-3.7-6.2h-2.1v6.2h-1.6V2.5h3.8c1.8,0,3.1,0.3,4,0.9C65.3,4,65.7,5,65.7,6.3
				c0,1-0.3,1.8-0.9,2.4C64.3,9.3,63.4,9.8,62.3,10z M64,6.3c0-0.8-0.3-1.3-0.8-1.7C62.6,4.2,61.8,4,60.7,4h-2.4v4.6h2
				c1.3,0,2.2-0.2,2.8-0.5C63.7,7.7,64,7.1,64,6.3z"/>
			<path class="st5" d="M46.3,2.5l5.9,13.8h-1.9l-1.4-3.4H42l-1.4,3.4h-1.9l6.1-13.8H46.3z M48.3,11.4l-2.7-6.8h-0.1l-2.9,6.8H48.3z
				"/>
			<polygon class="st5" points="27,14.8 27,16.3 18,16.3 18,2.5 26.7,2.5 26.7,4 19.6,4 19.6,8.4 26.2,8.4 26.2,9.9 19.6,9.9 
				19.6,14.8 			"/>
			<polygon class="st5" points="13.5,2.5 9.5,16.3 7.7,16.3 4.3,4.6 4.2,4.6 0.8,16.3 -1,16.3 -5,2.5 -3.2,2.5 -0.1,14 0,14 
				3.4,2.5 5.2,2.5 8.6,14 8.6,14 11.8,2.5 			"/>
		</g>
		<g>
		</g>
	</g>
</g>
</svg>
